<svg xmlns="http://www.w3.org/2000/svg" xmlns:xlink="http://www.w3.org/1999/xlink" viewBox="0 0 2562 1442"><defs><style>.cls-1,.cls-2,.cls-3{fill:none;}.cls-2{stroke:#000;stroke-width:6px;}.cls-2,.cls-3,.cls-5{stroke-miterlimit:10;}.cls-3{stroke:#fca311;stroke-width:3px;}.cls-4{opacity:0.25;}.cls-5{fill:url(#New_Pattern);stroke:url(#New_Pattern_2);}</style><pattern id="New_Pattern" data-name="New Pattern" width="225" height="150" patternTransform="translate(-2.7 -5.19)" patternUnits="userSpaceOnUse" viewBox="0 0 225 150"><rect class="cls-1" width="225" height="150"/><path class="cls-2" d="M213,150.38c3-4.45,5-5.18,6.22-5.09,1.49.1,2.06,1.36,6.23,5.09,3.31,3,4.22,3.3,5,3.39,3,.34,5.8-2.19,7-3.39"/><path class="cls-2" d="M-12,150.38c3-4.45,5-5.18,6.22-5.09,1.49.1,2.06,1.36,6.23,5.09,3.31,3,4.22,3.3,5.05,3.39,3,.34,5.8-2.19,7-3.39"/><path class="cls-2" d="M213,.38c3-4.45,5-5.18,6.22-5.09,1.49.1,2.06,1.36,6.23,5.09,3.31,3,4.22,3.3,5,3.39,3,.34,5.8-2.19,7-3.39"/><path class="cls-2" d="M100.51,75.38c2.95-4.45,5-5.18,6.22-5.09,1.49.1,2.06,1.36,6.23,5.09,3.31,3,4.22,3.3,5.05,3.39,3,.34,5.8-2.19,7-3.39"/><path class="cls-2" d="M-12,.38C-9-4.07-7-4.8-5.77-4.71-4.28-4.61-3.71-3.35.46.38c3.31,3,4.22,3.3,5.05,3.39,3,.34,5.8-2.19,7-3.39"/></pattern><pattern id="New_Pattern_2" data-name="New Pattern 2" width="900" height="800" patternTransform="translate(-2.7 -5.19)" patternUnits="userSpaceOnUse" viewBox="0 0 900 800"><rect class="cls-1" width="900" height="800"/><line class="cls-3" x1="900" y1="535.5" x2="900" y2="544.5"/><line class="cls-3" x1="904.5" y1="540" x2="895.5" y2="540"/><line class="cls-3" x1="450" y1="735.5" x2="450" y2="744.5"/><line class="cls-3" x1="454.5" y1="740" x2="445.5" y2="740"/><line class="cls-3" y1="535.5" y2="544.5"/><line class="cls-3" x1="4.5" y1="540" x2="-4.5" y2="540"/><line class="cls-3" x1="900" y1="135.5" x2="900" y2="144.5"/><line class="cls-3" x1="904.5" y1="140" x2="895.5" y2="140"/><line class="cls-3" x1="450" y1="335.5" x2="450" y2="344.5"/><line class="cls-3" x1="454.5" y1="340" x2="445.5" y2="340"/><line class="cls-3" y1="135.5" y2="144.5"/><line class="cls-3" x1="4.5" y1="140" x2="-4.5" y2="140"/></pattern></defs><g id="Layer_2" data-name="Layer 2"><g id="Layer_5" data-name="Layer 5" class="cls-4"><rect class="cls-5" x="0.5" y="0.5" width="2561" height="1441"/></g></g></svg>